# xmcd
#
# Track frame offsets:
# 180
# 20699
# 31254
# 44703
# 56289
# 67094
# 86506
# 111283
# 126162
#
# Disc length: 2306 seconds
#
#
# Revision: 0
# Processed by: cddbd v1.5.2PL0 Copyright (c) Steve Scherf et al.
# Submitted via: Nero 7, 11, 10, 0 
#
DISCID=7b090009
DTITLE=Guitar Gabriel - Toot Blues
DYEAR=1991
DGENRE=Blues
TTITLE0=Do You Know What It Means To Have A Friend? 
TTITLE1=Came Home In The Morning
TTITLE2=Just A Little Bit
TTITLE3=Landlord Blues
TTITLE4=Jesus, Keep Me Near The Cross
TTITLE5=Amazing Grace, Careless Love
TTITLE6=Done Got Tired
TTITLE7=She's Been Gone Too Long
TTITLE8=I Got The Right To Cry Sometimes
EXTD=
EXTT0=Do You Know What It Means To Have A Friend? 
EXTT1=Came Home In The Morning
EXTT2=Just A Little Bit
EXTT3=Landlord Blues
EXTT4=Jesus, Keep Me Near The Cross
EXTT5=Amazing Grace, Careless Love
EXTT6=Done Got Tired
EXTT7=She's Been Gone Too Long
EXTT8=I Got The Right To Cry Sometimes
PLAYORDER=
